<?xml version="1.0" encoding="UTF-8"?>
<svg width="36px" height="36px" viewBox="0 0 36 36" version="1.1" xmlns="http://www.w3.org/2000/svg" xmlns:xlink="http://www.w3.org/1999/xlink">
    <title>编组 3</title>
    <defs>
        <circle id="path-1" cx="18" cy="18" r="18"></circle>
        <filter x="-8.3%" y="-8.3%" width="116.7%" height="116.7%" filterUnits="objectBoundingBox" id="filter-2">
            <feGaussianBlur stdDeviation="2" in="SourceAlpha" result="shadowBlurInner1"></feGaussianBlur>
            <feOffset dx="0" dy="-2" in="shadowBlurInner1" result="shadowOffsetInner1"></feOffset>
            <feComposite in="shadowOffsetInner1" in2="SourceAlpha" operator="arithmetic" k2="-1" k3="1" result="shadowInnerInner1"></feComposite>
            <feColorMatrix values="0 0 0 0 0   0 0 0 0 0   0 0 0 0 0  0 0 0 0.04 0" type="matrix" in="shadowInnerInner1"></feColorMatrix>
        </filter>
    </defs>
    <g id="模版1" stroke="none" stroke-width="1" fill="none" fill-rule="evenodd">
        <g id="首页---Px" transform="translate(-1180.000000, -18.000000)">
            <g id="编组-5" transform="translate(1128.000000, 18.000000)">
                <g id="编组-3" transform="translate(52.000000, 0.000000)">
                    <g id="椭圆形">
                        <use fill="#FFFFFF" fill-rule="evenodd" xlink:href="#path-1"></use>
                        <use fill="black" fill-opacity="1" filter="url(#filter-2)" xlink:href="#path-1"></use>
                    </g>
                    <g id="收藏" transform="translate(9.000000, 10.800000)" fill-rule="nonzero">
                        <path d="M16.4907162,1.55163622 C18.5031233,3.62060242 18.5030659,6.97487658 16.4907162,9.04390172 L9.88396863,15.8362745 C9.41237344,16.3212418 8.6477872,16.3212418 8.17607733,15.8362745 L2.59669055,10.1001367 C2.12503803,9.61516935 2.12509536,8.82897635 2.59669055,8.34412687 L9.2033808,1.55163622 C11.2156732,-0.517212074 14.4783665,-0.517212074 16.4906589,1.55163622 L16.4907162,1.55163622 Z" id="路径" fill="#FFCCC5"></path>
                        <path d="M9.02993698,16.1053143 C8.64801654,16.1053143 8.28891616,15.9524615 8.01885983,15.6748152 L2.75373605,10.261596 C2.48367972,9.98400865 2.33494805,9.61493356 2.33494805,9.22216127 C2.33494805,8.82950688 2.48367972,8.4603139 2.75373605,8.18260862 L9.2033808,1.55163622 C10.1766157,0.551048379 11.4705926,3.14940962e-10 12.8470772,3.14940962e-10 C14.2234471,3.14940962e-10 15.517424,0.551048379 16.4906589,1.55163622 C17.4638937,2.55222407 17.9999928,3.88262746 17.9999928,5.2977395 C17.9999928,6.71279259 17.4639511,8.04313703 16.4907162,9.04372488 L10.0410715,15.6746973 C9.77084312,15.9524615 9.41185741,16.1053143 9.02993698,16.1053143 Z M4.17523002,9.22210232 L9.02993698,14.2133108 L15.274488,7.79331428 C15.9227952,7.12672731 16.2798888,6.24044015 16.2798888,5.2977395 C16.2798888,4.35503885 15.9229099,3.46875169 15.2744307,2.80216471 C14.6259514,2.13557773 13.7640073,1.76844794 12.8470772,1.76844794 C11.9301471,1.76844794 11.0680882,2.13557773 10.4197237,2.80216471 L4.17523002,9.22210232 L4.17523002,9.22210232 Z" id="形状" fill="#FFC1B8"></path>
                        <path d="M15.4034385,10.1001367 L9.82410901,15.8362745 C9.35245648,16.3211829 8.5878129,16.3211829 8.11616038,15.8362745 L1.50924078,9.04366593 C-0.503051592,6.97481763 -0.503108929,3.62048452 1.50924078,1.55157728 C3.52170516,-0.517212074 6.78428382,-0.517212074 8.79663353,1.55169517 L15.4034385,8.34418582 C15.875091,8.82909424 15.875091,9.6152283 15.4034385,10.1001367 Z" id="路径" fill="#FF6650"></path>
                        <path d="M8.97019203,16.1053143 C8.58832893,16.1053143 8.22922855,15.9524026 7.95917222,15.6747562 L1.50947013,9.04366593 C0.536235266,8.04307808 0.000193511781,6.71273364 0.000193511781,5.2976216 C0.000193511781,3.88256851 0.536177929,2.55216512 1.50947013,1.55151833 C2.48270499,0.551048379 3.77668192,3.14940962e-10 5.15299449,3.14940962e-10 C6.52936441,3.14940962e-10 7.82334133,0.551048379 8.79663353,1.55169517 L15.2462783,8.18260862 C15.5153331,8.45773185 15.6661533,8.83208121 15.6651289,9.22222022 C15.6651289,9.61493356 15.5163346,9.98406759 15.2462209,10.2617729 L9.98126918,15.6746973 C9.71369639,15.9512799 9.34962163,16.1063179 8.97019203,16.1053143 L8.97019203,16.1053143 Z M5.15293716,1.76844794 C4.23612171,1.76844794 3.3740629,2.13551879 2.72569835,2.80204682 C2.07733381,3.46863379 1.72024021,4.35492095 1.72024021,5.2976216 C1.72024021,6.24032225 2.07739114,7.12666836 2.72575569,7.79313744 L8.97024937,14.2131929 L13.8247843,9.22210232 L7.58029063,2.80216471 C6.93192609,2.13557773 6.06986728,1.76844794 5.15293716,1.76844794 L5.15293716,1.76844794 Z" id="形状" fill="#FF8A79"></path>
                        <path d="M7.74530595,12.0573375 C7.59320243,12.0575298 7.44729574,11.9953927 7.33987743,11.8846775 L4.01434296,8.46567819 C3.79044275,8.23548522 3.79044275,7.86222481 4.01434296,7.63197288 C4.23824317,7.40177991 4.60129979,7.40177991 4.82525734,7.63197288 L8.15079181,11.0509722 C8.37469201,11.2811652 8.37469201,11.6544256 8.15079181,11.8846775 C8.0433415,11.9953796 7.89742305,12.0575129 7.74530595,12.0573375 Z" id="路径" fill="#FFFFFF"></path>
                    </g>
                </g>
            </g>
        </g>
    </g>
</svg>